HIERARCHY
ROOT joint_Root
{
	OFFSET 0.0 0.0 0.0
	CHANNELS 6 Xposition Yposition Zposition Zrotation Xrotation Yrotation 
	JOINT Hips
	{
		OFFSET -0.726466 93.3139 -2.00062
		CHANNELS 6 Xposition Yposition Zposition Zrotation Xrotation Yrotation 
		JOINT Spine
		{
			OFFSET 15.7357 0.0 0.0
			CHANNELS 6 Xposition Yposition Zposition Zrotation Xrotation Yrotation 
			JOINT Chest
			{
				OFFSET 8.98455 -0.406207 0.0
				CHANNELS 6 Xposition Yposition Zposition Zrotation Xrotation Yrotation 
				JOINT Neck
				{
					OFFSET 16.3773 0.0 0.0
					CHANNELS 6 Xposition Yposition Zposition Zrotation Xrotation Yrotation 
					JOINT Head
					{
						OFFSET 6.45672 0.0 0.0
						CHANNELS 6 Xposition Yposition Zposition Zrotation Xrotation Yrotation 
						End Site
						{
							OFFSET 0.0 0.0 0.0
						}
					}
				}
				JOINT Shoulder_L
				{
					OFFSET 12.9942 -0.242716 4.98039
					CHANNELS 6 Xposition Yposition Zposition Zrotation Xrotation Yrotation 
					JOINT UpperArm_L
					{
						OFFSET 5.34809 0.0 0.0
						CHANNELS 6 Xposition Yposition Zposition Zrotation Xrotation Yrotation 
						JOINT LowerArm_L
						{
							OFFSET 24.3286 1.87007e-05 0.0
							CHANNELS 6 Xposition Yposition Zposition Zrotation Xrotation Yrotation 
							JOINT Hand_L
							{
								OFFSET 22.2916 0.0 0.0
								CHANNELS 6 Xposition Yposition Zposition Zrotation Xrotation Yrotation 
								End Site
								{
									OFFSET 0.0 0.0 0.0
								}
							}
						}
					}
				}
				JOINT Shoulder_R
				{
					OFFSET 12.9945 -0.242716 -4.98039
					CHANNELS 6 Xposition Yposition Zposition Zrotation Xrotation Yrotation 
					JOINT UpperArm_R
					{
						OFFSET -5.34813 0.0 0.0
						CHANNELS 6 Xposition Yposition Zposition Zrotation Xrotation Yrotation 
						JOINT LowerArm_R
						{
							OFFSET -24.3289 0.000322201 0.0
							CHANNELS 6 Xposition Yposition Zposition Zrotation Xrotation Yrotation 
							JOINT Hand_R
							{
								OFFSET -22.2915 -0.000108084 0.0
								CHANNELS 6 Xposition Yposition Zposition Zrotation Xrotation Yrotation 
								End Site
								{
									OFFSET 0.0 0.0 0.0
								}
							}
						}
					}
				}
			}
		}
		JOINT UpperLeg_L
		{
			OFFSET -2.19248 -6.46944 0.0
			CHANNELS 6 Xposition Yposition Zposition Zrotation Xrotation Yrotation 
			JOINT LowerLeg_L
			{
				OFFSET 39.0811 0.0 -1.23785e-05
				CHANNELS 6 Xposition Yposition Zposition Zrotation Xrotation Yrotation 
				JOINT Foot_L
				{
					OFFSET 40.9854 0.0 -1.26872e-05
					CHANNELS 6 Xposition Yposition Zposition Zrotation Xrotation Yrotation 
					JOINT Toes_L
					{
						OFFSET 11.7543 0.0 0.0
						CHANNELS 6 Xposition Yposition Zposition Zrotation Xrotation Yrotation 
						End Site
						{
							OFFSET 0.0 0.0 0.0
						}
					}
				}
			}
		}
		JOINT UpperLeg_R
		{
			OFFSET -2.19251 6.46944 0.0
			CHANNELS 6 Xposition Yposition Zposition Zrotation Xrotation Yrotation 
			JOINT LowerLeg_R
			{
				OFFSET -39.0811 -0.00228153 -0.0401928
				CHANNELS 6 Xposition Yposition Zposition Zrotation Xrotation Yrotation 
				JOINT Foot_R
				{
					OFFSET -40.9854 0.0 0.0
					CHANNELS 6 Xposition Yposition Zposition Zrotation Xrotation Yrotation 
					JOINT Toes_R
					{
						OFFSET -11.7543 0.0 0.0
						CHANNELS 6 Xposition Yposition Zposition Zrotation Xrotation Yrotation 
						End Site
						{
							OFFSET 0.0 0.0 0.0
						}
					}
				}
			}
		}
	}
}
MOTION
Frames:	4
Frame Time:	0.0333333
0.000000 0.000000 0.000000 0.000000 0.000000 -0.000000 -2.101020 92.090700 -1.674670 87.521400 -0.136776 3.106520 15.735700 0.000005 -0.000001 86.999900 85.156200 -86.135200 8.984550 -0.406207 -0.000000 1.913150 -0.550853 1.737110 16.377300 -0.000001 -0.000001 2.574070 -4.366180 1.689980 6.456720 -0.000001 -0.000000 -0.461328 -3.636150 -4.024340 12.994200 -0.242716 4.980390 -90.020800 0.064878 -72.261100 5.348090 -0.000007 -0.000001 -66.327400 42.663200 -14.451600 24.328600 0.000019 0.000005 2.886790 5.719330 -26.839500 22.291600 -0.000001 0.000005 7.011400 5.547850 -8.605350 12.994500 -0.242716 -4.980390 87.906900 5.627990 -69.561300 -5.348130 -0.000001 -0.000004 -65.832300 35.210500 -15.728300 -24.328900 0.000322 -0.000009 2.415890 7.007110 -19.085000 -22.291500 -0.000108 -0.000004 8.018210 5.393300 -2.720800 -2.192480 -6.469440 -0.000000 -168.294000 -14.342900 -2.467180 39.081100 -0.000007 -0.000012 -0.173557 0.460244 20.661600 40.985400 -0.000006 -0.000013 -6.438350 4.140310 -63.291100 11.754300 -0.000000 0.000003 -0.000035 -0.000418 -16.593800 -2.192510 6.469440 -0.000001 175.733000 21.348200 178.989000 -39.081100 -0.002282 -0.040193 -0.012370 0.043117 19.997800 -40.985400 0.000008 0.000006 -0.694429 3.111560 -64.281700 -11.754300 -0.000006 -0.000006 -0.005981 -0.070659 -19.448800
0.000000 0.000000 0.000000 0.000000 0.000000 -0.000000 -2.084730 92.085900 -1.727530 87.558000 -0.068598 3.229990 15.735700 0.000005 -0.000001 86.865100 85.098200 -86.037600 8.984550 -0.406207 -0.000000 2.027780 -0.577191 1.663790 16.377300 -0.000001 -0.000001 2.630840 -4.353300 1.739860 6.456720 -0.000001 -0.000000 -0.634797 -3.638770 -4.115460 12.994200 -0.242716 4.980390 -89.994300 -0.017883 -72.263100 5.348090 -0.000007 -0.000001 -66.035100 43.166800 -14.489900 24.328600 0.000019 0.000005 2.937250 5.704620 -27.302100 22.291600 -0.000001 0.000005 6.967430 5.552890 -8.843040 12.994500 -0.242716 -4.980390 87.867600 5.697230 -69.440200 -5.348130 -0.000001 -0.000004 -65.353500 34.041900 -15.933800 -24.328900 0.000322 -0.000009 2.477120 6.900000 -19.811600 -22.291500 -0.000108 -0.000004 8.207710 5.394490 -2.759150 -2.192480 -6.469440 -0.000000 -168.333000 -14.279900 -2.439940 39.081100 -0.000007 -0.000012 -0.174818 0.461855 20.732500 40.985400 -0.000006 -0.000013 -6.414860 4.117420 -63.281700 11.754300 -0.000000 0.000003 -0.000040 -0.000466 -16.595700 -2.192510 6.469440 -0.000001 175.623000 21.369500 179.088000 -39.081100 -0.002282 -0.040193 -0.015874 0.052663 20.026600 -40.985400 0.000008 0.000006 -0.903167 3.140060 -64.253700 -11.754300 -0.000006 -0.000006 -0.006050 -0.071292 -19.474600
0.000000 0.000000 0.000000 0.000000 0.000000 -0.000000 -2.074300 92.083900 -1.776130 87.550100 -0.013305 3.341360 15.735700 0.000005 -0.000001 86.304000 85.034600 -85.493700 8.984550 -0.406207 -0.000000 2.149610 -0.679410 1.631820 16.377300 -0.000001 -0.000001 2.667280 -4.309330 1.727010 6.456720 -0.000001 -0.000000 -0.804287 -3.543070 -4.170460 12.994200 -0.242716 4.980390 -89.976300 -0.073858 -72.224000 5.348090 -0.000007 -0.000001 -65.169400 44.406500 -14.635400 24.328600 0.000019 0.000005 3.055800 5.656410 -28.441800 22.291600 -0.000001 0.000005 6.969420 5.558220 -9.099900 12.994500 -0.242716 -4.980390 87.850800 5.725780 -69.385600 -5.348130 -0.000001 -0.000004 -64.659900 32.193900 -16.263200 -24.328900 0.000322 -0.000009 2.498510 6.555850 -20.924300 -22.291500 -0.000108 -0.000004 9.063150 5.395780 -2.800580 -2.192480 -6.469440 -0.000000 -168.319000 -14.227000 -2.406670 39.081100 -0.000007 -0.000012 -0.174329 0.458998 20.797200 40.985400 -0.000006 -0.000013 -6.388250 4.162860 -63.280600 11.754300 -0.000000 0.000003 -0.000037 -0.000435 -16.594500 -2.192510 6.469440 -0.000001 175.584000 21.434900 179.164000 -39.081100 -0.002282 -0.040193 -0.015745 0.052202 20.063800 -40.985400 0.000008 0.000006 -0.883571 3.123790 -64.242500 -11.754300 -0.000006 -0.000006 -0.006195 -0.072592 -19.527600
0.000000 0.000000 0.000000 0.000000 0.000000 -0.000000 -2.056830 92.086900 -1.836960 87.582700 0.022090 3.415870 15.735700 0.000005 -0.000001 85.412100 84.979600 -84.639800 8.984550 -0.406207 -0.000000 2.248960 -0.839735 1.559580 16.377300 -0.000001 -0.000001 2.639530 -4.191600 1.672850 6.456720 -0.000001 -0.000000 -0.858103 -3.328080 -4.235700 12.994200 -0.242716 4.980390 -89.908400 -0.288128 -72.352900 5.348090 -0.000007 -0.000001 -64.161200 46.046700 -14.470600 24.328600 0.000019 0.000005 3.117450 5.303790 -30.508500 22.291600 -0.000001 0.000005 7.062360 5.569350 -9.654860 12.994500 -0.242716 -4.980390 87.839800 5.742690 -69.344900 -5.348130 -0.000001 -0.000004 -63.549100 29.928300 -16.932100 -24.328900 0.000322 -0.000009 2.439740 5.930760 -22.418400 -22.291500 -0.000108 -0.000004 10.093900 5.398520 -2.889650 -2.192480 -6.469440 -0.000000 -168.359000 -14.199900 -2.383310 39.081100 -0.000007 -0.000012 -0.173223 0.456013 20.800200 40.985400 -0.000006 -0.000013 -6.363800 4.176310 -63.242300 11.754300 -0.000000 0.000003 -0.000034 -0.000401 -16.593200 -2.192510 6.469440 -0.000001 175.514000 21.390700 179.211000 -39.081100 -0.002282 -0.040193 -0.018644 0.060168 20.055400 -40.985400 0.000008 0.000006 -1.025980 3.096190 -64.190900 -11.754300 -0.000006 -0.000006 -0.006008 -0.070908 -19.458900
